<?xml version="1.0" encoding="UTF-8" standalone="no" ?>
<!DOCTYPE svg PUBLIC "-//W3C//DTD SVG 1.1//EN" "http://www.w3.org/Graphics/SVG/1.1/DTD/svg11.dtd">
<svg xmlns="http://www.w3.org/2000/svg" xmlns:xlink="http://www.w3.org/1999/xlink" version="1.1" width="1080" height="1080" viewBox="0 0 1080 1080" xml:space="preserve">
<desc>Created with Fabric.js 5.2.4</desc>
<defs>
</defs>
<g transform="matrix(1 0 0 1 540 540)" id="1ae4a7ab-511e-4d5e-ba82-5096a9a57ab7"  >
<rect style="stroke: none; stroke-width: 1; stroke-dasharray: none; stroke-linecap: butt; stroke-dashoffset: 0; stroke-linejoin: miter; stroke-miterlimit: 4; fill: rgb(255,255,255); fill-rule: nonzero; opacity: 1; visibility: hidden;" vector-effect="non-scaling-stroke"  x="-540" y="-540" rx="0" ry="0" width="1080" height="1080" />
</g>
<g transform="matrix(1 0 0 1 540 540)" id="3de508ec-8376-4fd1-967b-c46e29ecf50b"  >
</g>
<g transform="matrix(1.35 0 0 1.35 542.02 542.02)"  >
<path style="stroke: none; stroke-width: 4; stroke-dasharray: none; stroke-linecap: butt; stroke-dashoffset: 0; stroke-linejoin: miter; stroke-miterlimit: 4; fill: rgb(26,178,44); fill-rule: nonzero; opacity: 1;"  transform=" translate(-400.03, -400.1)" d="M 524.4 0 C 530.1999999999999 1 534.3 5.4 538.4 9.8 L 600.6 75.1 L 656.5 133.5 L 707.8 187.2 L 752.0999999999999 233.6 C 765.6999999999999 247.79999999999998 779.0999999999999 262.2 792.8999999999999 276.1 C 802.5999999999999 285.90000000000003 802.2999999999998 307.3 792.0999999999999 317.3 C 774.5999999999999 334.6 757.8 352.90000000000003 740.6999999999999 370.8 L 683.4 430.7 L 633.6 482.9 L 586.6 532 L 541.4 579.5 C 539.6999999999999 581.3 537.9 582.9 536.4 584.8 C 524.5 599.8 508.09999999999997 588.6999999999999 504.7 574.5 C 504 571.5 503.8 568.3 503.8 565.2 L 503.8 439.9 L 503.8 434.7 C 495.40000000000003 434.7 487.3 434.4 479.3 434.8 C 465.6 435.3 451.8 435.90000000000003 438.1 437.1 C 425.1575720842285 438.1657972821454 412.25135452564507 439.6331708546976 399.3999999999999 441.5000000000001 C 385.50000000000006 443.5 371.6 445.8 357.8 448.4 C 333.7 452.9 310 459.4 286.5 467.4 C 253.21285860497215 478.65882476823293 221.30920096250577 493.65455028472337 191.39999999999998 512.0999999999999 C 114.01675579756576 559.8471812467681 54.65182511778448 631.908047930934 22.600000000000023 717.0000000000001 C 12.112512464392069 743.4641719785908 4.6973164082210594 771.044674956747 0.49999999999992184 799.2000000000002 C 0.5 799.5 0.2 799.9000000000001 0.09999999999999998 800.2 L 0.09999999999999998 782 C 0.3 780.8 0.6 779.6 0.7 778.3 C 2.3 758.0999999999999 3.4000000000000004 737.6999999999999 5.4 717.5999999999999 C 8.600000000000001 686.1999999999999 13.6 655.0999999999999 19.9 624.3999999999999 C 33.05271757009655 556.4935764695465 54.68897588546235 490.5097079425614 84.29999999999998 428.0000000000001 C 114.1 366.6 151.6 313 199 269.5 C 232.9754441364163 238.19184529100107 272.03356334834774 212.8970633251788 314.49999999999994 194.70000000000005 C 341.14881527179443 182.95180538518136 369.06794553748614 174.32774711801468 397.70000000000005 169.00000000000006 C 418.15302623695163 165.31867306828957 438.7333302677464 162.38339469760894 459.3999999999994 160.20000000000005 C 473.4 158.7 487.5 158.89999999999998 501.5 158.39999999999998 C 502.2 158.39999999999998 502.9 158.2 503.8 157.99999999999997 L 503.8 152.89999999999998 L 503.8 26.8 C 503.8 18.3 506.1 11.200000000000001 511.8 6.300000000000001 C 515.1 3.500000000000001 519.4 2.200000000000001 523.3 0.3000000000000007 C 523.5999999999999 7.216449660063518e-16 524 7.216449660063518e-16 524.4 7.216449660063518e-16 z" stroke-linecap="round" />
</g>
<g transform="matrix(NaN NaN NaN NaN 0 0)"  >
<g style=""   >
</g>
</g>
<g transform="matrix(NaN NaN NaN NaN 0 0)"  >
<g style=""   >
</g>
</g>
</svg>